<?xml version="1.0" encoding="UTF-8" standalone="no"?>
<svg fill="#0d2844" height="800" width="800" version="1.1" id="Capa_1" viewBox="-5.8 -5.8 69.600001 69.6" xml:space="preserve" stroke="#0d2844" stroke-width="0.058" sodipodi:docname="pdf-tools.svg" inkscape:version="1.2.2 (b0a8486541, 2022-12-01)"
   xmlns:inkscape="http://www.inkscape.org/namespaces/inkscape"
   xmlns:sodipodi="http://sodipodi.sourceforge.net/DTD/sodipodi-0.dtd"
   xmlns="http://www.w3.org/2000/svg"
   xmlns:svg="http://www.w3.org/2000/svg">
   <defs id="defs22" />
   <sodipodi:namedview id="namedview20" pagecolor="#ffffff" bordercolor="#666666" borderopacity="1.0" inkscape:showpageshadow="2" inkscape:pageopacity="0.0" inkscape:pagecheckerboard="0" inkscape:deskcolor="#d1d1d1" showgrid="false" inkscape:zoom="0.658125" inkscape:cx="-154.22602" inkscape:cy="158.78443" inkscape:window-width="2500" inkscape:window-height="1576" inkscape:window-x="382" inkscape:window-y="1440" inkscape:window-maximized="1" inkscape:current-layer="Capa_1" />
   <g id="g3367" transform="translate(2.1527633,1.8669576)">
      <g id="SVGRepo_bgCarrier" stroke-width="0" transform="translate(-7.5979886,-0.89555219)">

         <path transform="matrix(2.175,0,0,2.175,-5.8,-5.8)" d="m 16,29.633811 c 1.920797,-0.558342 3.435773,-1.898513 5.17897,-2.879569 1.640235,-0.92311 3.583648,-1.363322 4.84394,-2.761238 1.281749,-1.421719 1.857976,-3.318082 2.313123,-5.177385 0.459316,-1.876332 0.555017,-3.790601 0.352463,-5.711685 C 28.470215,11.033698 28.827589,8.313163 27.105379,7.1437562 25.170022,5.8296205 22.178865,8.5364923 20.177678,7.3249618 17.847319,5.9141488 18.711331,0.68440785 16,0.42049473 13.448518,0.17214085 13.684221,5.2859148 11.411402,6.4716779 9.2499308,7.5993491 5.9148982,4.85894 4.1900802,6.5819033 c -1.6241062,1.6223599 0.067353,4.5106717 0.310285,6.7933797 0.1829561,1.719148 0.9210782,3.304347 0.9483076,5.032989 0.035409,2.247941 -1.4327962,4.469356 -0.7648135,6.616049 0.6888759,2.213838 2.3039655,4.356226 4.4511997,5.230876 2.15492,0.87778 4.630586,0.0281 6.864941,-0.621386" fill="#7ac6ff" strokewidth="0" id="path2" />

      </g>
      <g id="SVGRepo_tracerCarrier" stroke-linecap="round" stroke-linejoin="round" transform="translate(-7.5979886,-0.89555219)" />
      <g id="SVGRepo_iconCarrier" transform="translate(-7.5979886,-0.89555219)">
         <g id="g16">
            <path d="M 50.95,12.187 50.179,11.416 40.084,1.321 39.313,0.55 C 38.964,0.201 38.48,0 37.985,0 H 8.963 C 7.777,0 6.5,0.916 6.5,2.926 V 39 55.537 56 c 0,0.837 0.842,1.653 1.838,1.91 0.05,0.013 0.098,0.032 0.15,0.042 C 8.644,57.983 8.803,58 8.963,58 h 40.074 c 0.16,0 0.319,-0.017 0.475,-0.048 0.052,-0.01 0.1,-0.029 0.15,-0.042 C 50.658,57.653 51.5,56.837 51.5,56 V 55.537 39 13.978 c 0,-0.767 -0.092,-1.333 -0.55,-1.791 z M 47.935,12 H 39.5 V 3.565 Z M 8.963,56 C 8.892,56 8.828,55.974 8.765,55.951 8.609,55.877 8.5,55.721 8.5,55.537 V 41 h 41 v 14.537 c 0,0.184 -0.109,0.339 -0.265,0.414 C 49.172,55.974 49.108,56 49.037,56 Z M 8.5,39 V 2.926 C 8.5,2.709 8.533,2 8.963,2 H 37.558 C 37.525,2.126 37.5,2.256 37.5,2.391 V 14 h 11.609 c 0.135,0 0.264,-0.025 0.39,-0.058 0,0.015 10e-4,0.021 10e-4,0.036 V 39 Z" id="path6" />
            <path d="M 22.042,44.744 C 21.709,44.471 21.333,44.265 20.914,44.129 20.495,43.992 20.071,43.924 19.643,43.924 H 16.745 V 54 h 1.641 v -3.637 h 1.217 c 0.528,0 1.012,-0.077 1.449,-0.232 0.437,-0.155 0.811,-0.374 1.121,-0.656 0.31,-0.282 0.551,-0.631 0.725,-1.046 0.173,-0.415 0.26,-0.877 0.26,-1.388 0,-0.483 -0.103,-0.918 -0.308,-1.306 -0.205,-0.388 -0.475,-0.717 -0.808,-0.991 z m -0.622,3.329 c -0.101,0.278 -0.232,0.494 -0.396,0.649 -0.164,0.155 -0.344,0.267 -0.54,0.335 -0.196,0.068 -0.395,0.103 -0.595,0.103 h -1.504 v -3.992 h 1.23 c 0.419,0 0.756,0.066 1.012,0.198 0.255,0.132 0.453,0.296 0.595,0.492 0.141,0.196 0.234,0.401 0.28,0.615 0.045,0.214 0.068,0.403 0.068,0.567 0,0.411 -0.05,0.755 -0.15,1.033 z" id="path8" />
            <path d="m 31.954,45.4 c -0.424,-0.446 -0.957,-0.805 -1.6,-1.073 -0.643,-0.268 -1.388,-0.403 -2.235,-0.403 H 25.084 V 54 h 3.814 c 0.127,0 0.323,-0.016 0.588,-0.048 0.264,-0.032 0.556,-0.104 0.875,-0.219 0.319,-0.114 0.649,-0.285 0.991,-0.513 0.342,-0.228 0.649,-0.54 0.923,-0.937 0.274,-0.397 0.499,-0.889 0.677,-1.477 0.178,-0.588 0.267,-1.297 0.267,-2.126 0,-0.602 -0.105,-1.188 -0.314,-1.757 -0.211,-0.568 -0.527,-1.076 -0.951,-1.523 z m -1.196,6.33 c -0.492,0.711 -1.294,1.066 -2.406,1.066 h -1.627 v -7.629 h 0.957 c 0.784,0 1.422,0.103 1.914,0.308 0.492,0.205 0.882,0.474 1.169,0.807 0.287,0.333 0.48,0.704 0.581,1.114 0.1,0.41 0.15,0.825 0.15,1.244 0,1.349 -0.246,2.38 -0.738,3.09 z" id="path10" />
            <polygon points="37.266,54 37.266,49.461 41.477,49.461 41.477,48.34 37.266,48.34 37.266,45.168 41.9,45.168 41.9,43.924 35.598,43.924 35.598,54 " id="polygon12" />
            <path d="m 38.428,22.961 c -0.919,0 -2.047,0.12 -3.358,0.358 -1.83,-1.942 -3.74,-4.778 -5.088,-7.562 1.337,-5.629 0.668,-6.426 0.373,-6.802 -0.314,-0.4 -0.757,-1.049 -1.261,-1.049 -0.211,0 -0.787,0.096 -1.016,0.172 -0.576,0.192 -0.886,0.636 -1.134,1.215 -0.707,1.653 0.263,4.471 1.261,6.643 -0.853,3.393 -2.284,7.454 -3.788,10.75 -3.79,1.736 -5.803,3.441 -5.985,5.068 -0.066,0.592 0.074,1.461 1.115,2.242 0.285,0.213 0.619,0.326 0.967,0.326 v 0 c 0.875,0 1.759,-0.67 2.782,-2.107 0.746,-1.048 1.547,-2.477 2.383,-4.251 2.678,-1.171 5.991,-2.229 8.828,-2.822 1.58,1.517 2.995,2.285 4.211,2.285 0.896,0 1.664,-0.412 2.22,-1.191 0.579,-0.811 0.711,-1.537 0.39,-2.16 -0.385,-0.749 -1.334,-1.115 -2.9,-1.115 z m -17.892,9.673 c -0.468,-0.359 -0.441,-0.601 -0.431,-0.692 0.062,-0.556 0.933,-1.543 3.07,-2.744 -1.62,2.992 -2.49,3.389 -2.639,3.436 z m 8.2,-22.922 c 0.043,-0.014 1.045,1.101 0.096,3.216 -1.426,-1.459 -0.194,-3.183 -0.096,-3.216 z m -2.067,16.026 c 1.015,-2.419 1.959,-5.09 2.674,-7.564 1.123,2.018 2.472,3.976 3.822,5.544 -2.134,0.501 -4.406,1.208 -6.496,2.02 z M 39.57,25.259 c -0.308,0.431 -0.976,0.441 -1.21,0.441 -0.533,0 -0.732,-0.317 -1.547,-0.944 0.672,-0.086 1.306,-0.108 1.811,-0.108 0.889,0 1.052,0.131 1.175,0.197 -0.022,0.071 -0.08,0.205 -0.229,0.414 z" id="path14" />
         </g>
      </g>
      <g id="SVGRepo_iconCarrier-5" transform="matrix(-1.6336156,-0.00807766,-0.00807766,1.6336156,65.403339,19.139883)" style="fill:#0e83d9;fill-opacity:0.945176">
         <path d="m 15.6316,7.63137 c -0.396,-0.39602 -0.594,-0.59402 -0.6682,-0.82235 -0.0653,-0.20085 -0.0653,-0.41719 0,-0.61804 0.0742,-0.22833 0.2722,-0.42633 0.6682,-0.82235 L 18.47,2.53026 C 17.7168,2.18962 16.8806,2 16.0002,2 c -3.3137,0 -6,2.68629 -6,6 0,0.49104 0.059,0.9683 0.1703,1.42509 0.1191,0.48915 0.1787,0.73371 0.1682,0.88821 -0.0111,0.1618 -0.0352,0.2479 -0.1098,0.3918 -0.0713,0.1375 -0.2078,0.274 -0.48086,0.5471 L 3.50023,17.5 c -0.82843,0.8284 -0.82843,2.1716 0,3 0.82842,0.8284 2.17157,0.8284 3,0 L 12.748,14.2522 c 0.2731,-0.2731 0.4096,-0.4096 0.5471,-0.4808 0.144,-0.0746 0.23,-0.0987 0.3918,-0.1098 0.1545,-0.0106 0.3991,0.049 0.8882,0.1681 C 15.0319,13.941 15.5092,14 16.0002,14 c 3.3137,0 6,-2.6863 6,-6 0,-0.88041 -0.1896,-1.71653 -0.5302,-2.46974 l -2.8384,2.83837 c -0.396,0.39602 -0.594,0.59402 -0.8224,0.66821 -0.2008,0.06526 -0.4171,0.06526 -0.618,0 C 16.9629,8.96265 16.7649,8.76465 16.3689,8.36863 Z" stroke="#366496" stroke-width="1.056" stroke-linecap="round" stroke-linejoin="round" id="path452" style="fill:#0e83d9;fill-opacity:0.945176" />
      </g>
   </g>
</svg>
